<?xml version="1.0" encoding="UTF-8"?>
<!DOCTYPE svg PUBLIC "-//W3C//DTD SVG 1.1//EN" "http://www.w3.org/Graphics/SVG/1.1/DTD/svg11.dtd">
<!-- Creator: CorelDRAW 2020 (64-Bit Evaluation Version) -->
<svg xmlns="http://www.w3.org/2000/svg" xml:space="preserve" width="300px" height="90px" version="1.1" style="shape-rendering:geometricPrecision; text-rendering:geometricPrecision; image-rendering:optimizeQuality; fill-rule:evenodd; clip-rule:evenodd"
viewBox="0 0 300 90"
 xmlns:xlink="http://www.w3.org/1999/xlink"
 xmlns:xodm="http://www.corel.com/coreldraw/odm/2003">
 <defs>
  <style type="text/css">
   <![CDATA[
    .fil5 {fill:#2B2A29;fill-rule:nonzero}
    .fil0 {fill:#394657;fill-rule:nonzero}
    .fil4 {fill:url(#id0)}
    .fil1 {fill:url(#id1)}
    .fil3 {fill:url(#id2)}
    .fil2 {fill:url(#id3)}
   ]]>
  </style>
  <linearGradient id="id0" gradientUnits="userSpaceOnUse" x1="8.75" y1="13.9" x2="49.41" y2="54.56">
   <stop offset="0" style="stop-opacity:1; stop-color:#76C4E8"/>
   <stop offset="0.819608" style="stop-opacity:1; stop-color:#6189E0"/>
   <stop offset="1" style="stop-opacity:1; stop-color:#6189E0"/>
  </linearGradient>
  <linearGradient id="id1" gradientUnits="userSpaceOnUse" x1="8.75" y1="13.9" x2="49.41" y2="54.56">
   <stop offset="0" style="stop-opacity:1; stop-color:#48B0E0"/>
   <stop offset="1" style="stop-opacity:1; stop-color:#427CC5"/>
  </linearGradient>
  <linearGradient id="id2" gradientUnits="userSpaceOnUse" x1="42.56" y1="47.71" x2="70.31" y2="75.46">
   <stop offset="0" style="stop-opacity:1; stop-color:#48B0E0"/>
   <stop offset="0.819608" style="stop-opacity:1; stop-color:#2C62D6"/>
   <stop offset="1" style="stop-opacity:1; stop-color:#2C62D6"/>
  </linearGradient>
  <linearGradient id="id3" gradientUnits="userSpaceOnUse" x1="42.56" y1="47.72" x2="70.31" y2="75.46">
   <stop offset="0" style="stop-opacity:1; stop-color:#48B0E0"/>
   <stop offset="0.819608" style="stop-opacity:1; stop-color:#427CC5"/>
   <stop offset="1" style="stop-opacity:1; stop-color:#427CC5"/>
  </linearGradient>
 </defs>
 <g id="Layer_x0020_1">
  <metadata id="CorelCorpID_0Corel-Layer"/>
  <path class="fil0" d="M89.05 51.05l0 -36 6.1 0 11.9 23.89 11.9 -23.89 6.1 0 0 36 -6.35 0 0 -21.5 -10.45 21.5 -2.4 0 -10.45 -21.5 0 21.5 -6.35 0zm53.55 0.75c-2.76,0 -5.2,-0.6 -7.31,-1.8 -2.1,-1.19 -3.75,-2.83 -4.95,-4.92 -1.19,-2.09 -1.79,-4.49 -1.79,-7.19 0,-2.94 0.59,-5.51 1.75,-7.69 1.17,-2.19 2.78,-3.89 4.83,-5.1 2.05,-1.2 4.41,-1.8 7.07,-1.8 2.84,0 5.24,0.66 7.23,2 1.98,1.33 3.45,3.2 4.4,5.62 0.95,2.42 1.28,5.26 1,8.53l-6.73 0 0 -2.5c0,-2.75 -0.43,-4.74 -1.31,-5.95 -0.87,-1.21 -2.3,-1.81 -4.29,-1.81 -2.31,0 -4.01,0.71 -5.11,2.11 -1.09,1.41 -1.64,3.5 -1.64,6.25 0,2.51 0.55,4.45 1.64,5.83 1.1,1.37 2.7,2.07 4.81,2.07 1.34,0 2.48,-0.3 3.43,-0.88 0.95,-0.58 1.67,-1.43 2.17,-2.52l6.8 1.95c-1.01,2.46 -2.62,4.38 -4.81,5.74 -2.19,1.37 -4.59,2.06 -7.19,2.06zm-8.95 -12.35l0 -5.05 17.9 0 0 5.05 -17.9 0zm35.75 12.35c-2.48,0 -4.66,-0.63 -6.52,-1.88 -1.87,-1.25 -3.32,-2.95 -4.36,-5.1 -1.04,-2.15 -1.57,-4.57 -1.57,-7.27 0,-2.75 0.54,-5.21 1.59,-7.35 1.06,-2.14 2.55,-3.82 4.46,-5.05 1.92,-1.24 4.17,-1.85 6.75,-1.85 2.57,0 4.73,0.62 6.48,1.87 1.75,1.25 3.07,2.95 3.97,5.1 0.9,2.15 1.35,4.58 1.35,7.28 0,2.7 -0.46,5.12 -1.36,7.27 -0.9,2.15 -2.26,3.85 -4.06,5.1 -1.8,1.25 -4.04,1.88 -6.73,1.88zm1.1 -6.05c1.52,0 2.74,-0.35 3.64,-1.03 0.91,-0.68 1.56,-1.64 1.96,-2.87 0.4,-1.24 0.6,-2.67 0.6,-4.3 0,-1.64 -0.2,-3.07 -0.6,-4.31 -0.4,-1.23 -1.03,-2.19 -1.91,-2.87 -0.87,-0.68 -2.02,-1.03 -3.44,-1.03 -1.51,0 -2.76,0.37 -3.73,1.11 -0.98,0.75 -1.7,1.74 -2.17,2.98 -0.46,1.25 -0.7,2.62 -0.7,4.12 0,1.51 0.23,2.89 0.68,4.13 0.45,1.25 1.14,2.23 2.07,2.96 0.94,0.74 2.14,1.11 3.6,1.11zm6.2 5.3l0 -18.5 -0.85 0 0 -17.5 6.85 0 0 36 -6 0zm16.75 0l-8.25 -27.05 6.65 0.05 4.9 16.09 4.98 -16.09 5.65 0 4.97 16.09 4.9 -16.09 6.65 0 -8.25 27 -5.2 0 -5.9 -17.6 -5.9 17.6 -5.2 0zm33.45 -30.75l0 -6.01 6.8 0 0 6.01 -6.8 0zm0 30.75l0 -27 6.8 0 0 27 -6.8 0zm22.85 0.75c-3.4,0 -6.15,-0.78 -8.23,-2.32 -2.09,-1.54 -3.37,-3.72 -3.82,-6.53l6.95 -1.05c0.29,1.26 0.92,2.25 1.9,2.97 0.97,0.72 2.2,1.08 3.7,1.08 1.24,0 2.19,-0.25 2.85,-0.72 0.67,-0.47 1,-1.13 1,-1.98 0,-0.54 -0.13,-0.97 -0.4,-1.3 -0.26,-0.32 -0.85,-0.64 -1.78,-0.95 -0.93,-0.32 -2.37,-0.74 -4.32,-1.25 -2.2,-0.57 -3.95,-1.2 -5.27,-1.9 -1.32,-0.71 -2.27,-1.54 -2.85,-2.52 -0.58,-0.97 -0.88,-2.15 -0.88,-3.53 0,-1.74 0.45,-3.25 1.33,-4.52 0.88,-1.27 2.13,-2.25 3.74,-2.95 1.61,-0.68 3.5,-1.03 5.68,-1.03 2.12,0 3.99,0.32 5.63,0.97 1.63,0.65 2.96,1.58 3.97,2.78 1,1.2 1.62,2.61 1.85,4.24l-6.95 1.26c-0.11,-1 -0.55,-1.8 -1.3,-2.38 -0.75,-0.58 -1.76,-0.92 -3.05,-1.02 -1.25,-0.09 -2.25,0.08 -3,0.49 -0.76,0.42 -1.15,1.02 -1.15,1.8 0,0.47 0.17,0.86 0.5,1.18 0.32,0.32 1,0.64 2.02,0.98 1.02,0.33 2.58,0.76 4.68,1.29 2.05,0.54 3.7,1.16 4.95,1.86 1.24,0.72 2.14,1.57 2.7,2.55 0.57,0.99 0.85,2.19 0.85,3.6 0,2.76 -1,4.94 -3,6.52 -2,1.58 -4.76,2.38 -8.3,2.38zm27.35 0c-2.76,0 -5.2,-0.6 -7.3,-1.8 -2.11,-1.19 -3.76,-2.83 -4.95,-4.92 -1.2,-2.09 -1.8,-4.49 -1.8,-7.19 0,-2.94 0.59,-5.51 1.75,-7.69 1.17,-2.19 2.78,-3.89 4.83,-5.1 2.05,-1.2 4.41,-1.8 7.07,-1.8 2.84,0 5.25,0.66 7.23,2 1.98,1.33 3.45,3.2 4.4,5.62 0.95,2.42 1.28,5.26 1,8.53l-6.73 0 0 -2.5c0,-2.75 -0.43,-4.74 -1.3,-5.95 -0.88,-1.21 -2.31,-1.81 -4.3,-1.81 -2.31,0 -4.01,0.71 -5.1,2.11 -1.1,1.41 -1.65,3.5 -1.65,6.25 0,2.51 0.55,4.45 1.65,5.83 1.09,1.37 2.69,2.07 4.8,2.07 1.34,0 2.48,-0.3 3.43,-0.88 0.95,-0.58 1.67,-1.43 2.17,-2.52l6.8 1.95c-1.01,2.46 -2.62,4.38 -4.8,5.74 -2.2,1.37 -4.6,2.06 -7.2,2.06zm-8.95 -12.35l0 -5.05 17.9 0 0 5.05 -17.9 0z"/>
  <path class="fil1" d="M29.65 55.47l-17.68 0c-1.88,0 -3.41,-1.52 -3.42,-3.4 0,0.42 0.09,0.82 0.23,1.19 0.03,0 0.05,0 0.08,0 7.98,0 15.93,-3.75 20.86,-10.06 2.14,-2.73 3.72,-5.84 5.4,-9.14 1.74,-3.42 3.54,-6.96 6.04,-10.1 2.47,-3.1 5.59,-5.67 9.07,-7.58 -0.33,-1.47 -1.6,-2.59 -3.15,-2.67 1.8,0.09 3.24,1.59 3.24,3.41l0 14.96c-2.39,1.38 -4.43,3.36 -5.82,5.74 -1.05,1.81 -1.72,3.78 -2.36,5.68 -0.62,1.83 -1.2,3.56 -2.1,5.13 -2.13,3.74 -6.12,6.33 -10.39,6.84zm-21.1 -3.4c0,-0.01 0,-0.01 0,-0.01 0,0 0,0 0,0.01zm38.53 -38.36c-0.01,0 -0.01,0 -0.01,0 0,0 0,0 0.01,0zm-0.01 0c-0.02,0 -0.03,0 -0.05,0 0.02,0 0.03,0 0.05,0zm-0.05 0c0,0 -0.01,-0.01 -0.01,-0.01 0,0 0.01,0.01 0.01,0.01zm-0.01 -0.01c0,0 -0.01,0 -0.01,0 0,0 0.01,0 0.01,0zm-0.01 0c0,0 -0.01,0 -0.01,0 0,0 0.01,0 0.01,0zm-0.01 0c-0.01,0 -0.01,0 -0.01,0 0,0 0.01,0 0.01,0zm-0.01 0c0,0 -0.01,0 -0.01,0 0,0 0.01,0 0.01,0zm-0.02 0c0,0 0,0 0,0 0,0 0,0 0,0zm-0.01 0c0,0 0,0 0,0 0,0 0,0 0,0zm-0.01 0c0,0 0,0 0,0 0,0 0,0 0,0zm-0.01 0c0,0 0,0 0,0 0,0 0,0 0,0zm-0.01 0c0,0 0,0 0,0 0,0 0,0 0,0zm-0.01 0c0,0 0,0 0,0 0,0 0,0 0,0z"/>
  <path class="fil2" d="M68.13 34.94l-17.78 0c-1.52,1.09 -2.81,2.48 -3.75,4.1 -0.93,1.6 -1.53,3.36 -2.16,5.23 -0.63,1.86 -1.28,3.79 -2.29,5.57 -2.53,4.44 -7.29,7.5 -12.36,8.05l0 15.39c0,1.89 1.53,3.42 3.42,3.42l13.68 0c1.89,0 3.43,-1.53 3.43,-3.42l0 -17.81 17.81 0c1.89,0 3.42,-1.53 3.42,-3.42l0 -13.69c0,-1.89 -1.53,-3.42 -3.42,-3.42z"/>
  <path class="fil3" d="M8.55 52.07l0 0 0 0zm0 -0.01c0,-0.01 0,-0.01 0,-0.01l0 0c0,0 0,0 0,0.01zm38.53 -38.35l0 0 0 0zm-0.01 0c0,0 0,0 0,0 0,0 0,0 0,0zm-0.05 0c0,0 0,0 0,0 0,0 0,0 0,0zm-0.01 -0.01c0,0 0,0 0,0 0,0 0,0 0,0zm-0.01 0c0,0 0,0 0,0 0,0 0,0 0,0zm-0.01 0c0,0 0,0 0,0 0,0 0,0 0,0zm-0.01 0c0,0 0,0 0,0 0,0 0,0 0,0zm-0.01 0c0,0 -0.01,0 -0.01,0 0,0 0.01,0 0.01,0zm-0.01 0c0,0 -0.01,0 -0.01,0 0,0 0.01,0 0.01,0zm-0.01 0c0,0 -0.01,0 -0.01,0 0,0 0.01,0 0.01,0zm-0.01 0c0,0 -0.01,0 -0.01,0 0,0 0.01,0 0.01,0zm-0.01 0c-0.01,0 -0.01,0 -0.01,0 0,0 0,0 0.01,0zm-0.01 0c-0.01,0 -0.01,0 -0.01,0 0,0 0,0 0.01,0zm-0.01 0c-0.01,0 -0.01,0 -0.02,0 0.01,0 0.01,0 0.02,0z"/>
  <path class="fil4" d="M8.86 53.26c-0.03,0 -0.05,0 -0.08,0 -0.14,-0.37 -0.23,-0.77 -0.23,-1.19l0 0c0,-0.01 0,-0.01 0,-0.01 0,-0.01 0,-0.01 0,-0.01l0 -13.69c0,-1.89 1.53,-3.42 3.42,-3.42l17.82 0 0 -17.82c0,-1.88 1.53,-3.42 3.42,-3.42l13.68 0 0 0c0.01,0 0.01,0 0.02,0 0,0 0,0 0,0 0,0 0,0 0.01,0 0,0 0,0 0,0 0,0 0,0 0.01,0 0,0 0,0 0,0 0,0 0.01,0 0.01,0 0,0 0,0 0,0 0,0 0.01,0 0.01,0 0,0 0,0 0,0 0,0 0.01,0 0.01,0 0,0 0,0 0,0 0,0 0.01,0 0.01,0 0,0 0.01,0 0.01,0 0,0 0,0 0,0 0,0 0,0 0.01,0 0,0 0,0 0,0 0,0 0.01,0 0.01,0 0,0 0,0 0,0 0,0 0.01,0 0.01,0 0,0 0,0 0,0 0,0 0.01,0.01 0.01,0.01 0,0 0,0 0,0 0.02,0 0.03,0 0.05,0 0,0 0,0 0,0 0,0 0,0 0.01,0l0 0c1.55,0.08 2.82,1.2 3.15,2.67 -3.48,1.91 -6.6,4.48 -9.07,7.58 -2.5,3.14 -4.3,6.68 -6.04,10.1 -1.68,3.3 -3.26,6.41 -5.4,9.14 -4.93,6.31 -12.88,10.06 -20.86,10.06z"/>
  <path class="fil5" d="M90.55 77l0 -12 1.22 0 0.01 5.4 6.63 0.01 0 -5.41 1.22 0 0 12 -1.22 0 0 -5.42 -6.64 -0.01 0.01 5.43 -1.23 0zm15.22 0.25c-0.88,0 -1.64,-0.2 -2.28,-0.59 -0.64,-0.38 -1.14,-0.93 -1.5,-1.64 -0.35,-0.7 -0.53,-1.53 -0.53,-2.48 0,-0.98 0.18,-1.84 0.53,-2.55 0.35,-0.72 0.84,-1.27 1.48,-1.66 0.63,-0.39 1.38,-0.58 2.25,-0.58 0.89,0 1.65,0.2 2.27,0.61 0.63,0.41 1.11,0.99 1.43,1.75 0.32,0.76 0.47,1.67 0.44,2.73l-1.25 0 0 -0.44c-0.02,-1.16 -0.27,-2.04 -0.75,-2.64 -0.48,-0.59 -1.18,-0.89 -2.11,-0.89 -0.96,0 -1.7,0.32 -2.22,0.94 -0.51,0.63 -0.77,1.53 -0.77,2.69 0,1.13 0.26,2.01 0.77,2.63 0.52,0.63 1.25,0.94 2.19,0.94 0.64,0 1.21,-0.15 1.69,-0.45 0.48,-0.29 0.86,-0.72 1.14,-1.28l1.14 0.44c-0.36,0.78 -0.88,1.39 -1.57,1.82 -0.69,0.43 -1.48,0.65 -2.35,0.65zm-3.44 -4.41l0 -1.03 6.87 0 0 1.03 -6.87 0zm11.78 4.41c-0.68,0 -1.25,-0.13 -1.7,-0.37 -0.46,-0.24 -0.8,-0.57 -1.03,-0.97 -0.23,-0.41 -0.34,-0.85 -0.34,-1.33 0,-0.49 0.1,-0.91 0.29,-1.26 0.2,-0.34 0.47,-0.63 0.81,-0.85 0.34,-0.22 0.74,-0.39 1.19,-0.51 0.45,-0.11 0.96,-0.21 1.51,-0.29 0.55,-0.09 1.09,-0.16 1.63,-0.23 0.53,-0.06 0.99,-0.12 1.39,-0.18l-0.43 0.26c0.02,-0.89 -0.16,-1.55 -0.52,-1.97 -0.36,-0.43 -0.99,-0.65 -1.88,-0.65 -0.62,0 -1.14,0.14 -1.56,0.42 -0.43,0.28 -0.73,0.72 -0.9,1.32l-1.19 -0.35c0.2,-0.81 0.62,-1.43 1.24,-1.88 0.62,-0.44 1.43,-0.66 2.43,-0.66 0.82,0 1.52,0.15 2.09,0.46 0.58,0.31 0.98,0.75 1.22,1.34 0.11,0.26 0.18,0.55 0.22,0.87 0.03,0.32 0.05,0.65 0.05,0.99l0 5.59 -1.09 0 0 -2.26 0.31 0.13c-0.3,0.77 -0.78,1.36 -1.42,1.77 -0.65,0.4 -1.42,0.61 -2.32,0.61zm0.14 -1.06c0.58,0 1.08,-0.1 1.5,-0.31 0.43,-0.2 0.78,-0.49 1.04,-0.85 0.26,-0.35 0.43,-0.76 0.51,-1.21 0.06,-0.29 0.1,-0.61 0.1,-0.95 0.01,-0.35 0.01,-0.61 0.01,-0.78l0.47 0.24c-0.42,0.06 -0.87,0.11 -1.35,0.17 -0.49,0.05 -0.97,0.12 -1.44,0.19 -0.47,0.07 -0.89,0.16 -1.27,0.26 -0.25,0.07 -0.5,0.17 -0.74,0.3 -0.24,0.13 -0.44,0.3 -0.59,0.52 -0.15,0.22 -0.23,0.49 -0.23,0.81 0,0.26 0.07,0.51 0.2,0.76 0.13,0.24 0.34,0.45 0.63,0.61 0.29,0.16 0.68,0.24 1.16,0.24zm6.71 0.81l0 -12.25 1.22 0 0.01 12.25 -1.23 0zm8.63 0c-0.51,0.1 -1.01,0.14 -1.5,0.12 -0.49,-0.02 -0.93,-0.13 -1.31,-0.31 -0.39,-0.19 -0.68,-0.49 -0.88,-0.89 -0.17,-0.33 -0.25,-0.67 -0.27,-1.01 -0.01,-0.34 -0.02,-0.73 -0.02,-1.17l0 -8.24 1.22 0 0 8.19c0,0.38 0,0.69 0.01,0.94 0.01,0.26 0.07,0.48 0.17,0.68 0.2,0.37 0.52,0.59 0.96,0.66 0.43,0.07 0.97,0.06 1.62,-0.05l0 1.08zm-5.9 -7.95l0 -1.05 5.9 0 0 1.05 -5.9 0zm14.17 7.95l0 -4.6c0,-0.5 -0.05,-0.95 -0.14,-1.38 -0.09,-0.42 -0.24,-0.78 -0.45,-1.1 -0.21,-0.31 -0.48,-0.55 -0.81,-0.72 -0.33,-0.18 -0.73,-0.26 -1.21,-0.26 -0.43,0 -0.81,0.07 -1.14,0.22 -0.33,0.15 -0.61,0.37 -0.83,0.65 -0.23,0.28 -0.4,0.62 -0.52,1.02 -0.12,0.4 -0.17,0.86 -0.17,1.37l-0.87 -0.19c0,-0.93 0.16,-1.7 0.48,-2.33 0.33,-0.63 0.77,-1.1 1.34,-1.42 0.56,-0.33 1.21,-0.49 1.95,-0.49 0.54,0 1.01,0.08 1.41,0.25 0.4,0.17 0.75,0.39 1.03,0.68 0.28,0.28 0.5,0.6 0.67,0.97 0.18,0.36 0.3,0.75 0.38,1.15 0.08,0.41 0.11,0.82 0.11,1.23l0 4.95 -1.23 0zm-6.51 0l0 -12 1.11 0 0 6.77 0.13 0 0 5.23 -1.24 0zm17.1 0.25c-0.66,0 -1.28,-0.1 -1.85,-0.29 -0.57,-0.19 -1.05,-0.49 -1.43,-0.9 -0.3,-0.33 -0.52,-0.69 -0.67,-1.09 -0.14,-0.39 -0.22,-0.81 -0.24,-1.26 0,-0.42 0.06,-0.84 0.19,-1.25 0.12,-0.42 0.32,-0.79 0.6,-1.11 0.16,-0.2 0.34,-0.37 0.54,-0.5 0.2,-0.14 0.41,-0.25 0.63,-0.34 -0.42,-0.44 -0.74,-0.84 -0.95,-1.21 -0.22,-0.37 -0.33,-0.82 -0.33,-1.36 0,-0.62 0.15,-1.18 0.47,-1.69 0.31,-0.51 0.75,-0.9 1.3,-1.14 0.29,-0.13 0.58,-0.22 0.87,-0.28 0.3,-0.05 0.6,-0.08 0.89,-0.08 0.45,0 0.89,0.07 1.32,0.19 0.44,0.13 0.81,0.32 1.11,0.59 0.21,0.16 0.39,0.35 0.54,0.57 0.16,0.22 0.28,0.45 0.37,0.69l-1.18 0.35c-0.12,-0.3 -0.31,-0.55 -0.59,-0.76 -0.21,-0.17 -0.45,-0.28 -0.72,-0.35 -0.28,-0.07 -0.56,-0.1 -0.83,-0.1 -0.48,0 -0.9,0.09 -1.29,0.27 -0.33,0.17 -0.58,0.4 -0.75,0.7 -0.16,0.29 -0.25,0.64 -0.25,1.03 0,0.34 0.06,0.62 0.17,0.84 0.11,0.22 0.27,0.45 0.48,0.71 0.13,0.13 0.26,0.27 0.41,0.4 0.15,0.14 0.3,0.28 0.46,0.42l3.8 3.53c0.02,-0.16 0.04,-0.31 0.04,-0.46 0.01,-0.14 0.01,-0.29 0.01,-0.43l-0.01 -1.76 1.16 0 0 1.84c0,0.44 -0.02,0.8 -0.05,1.08 -0.03,0.27 -0.08,0.5 -0.13,0.69l1.55 1.42 -0.81 0.86 -1.33 -1.25c-0.18,0.24 -0.41,0.46 -0.69,0.64 -0.28,0.19 -0.56,0.34 -0.84,0.44 -0.3,0.14 -0.62,0.23 -0.95,0.28 -0.33,0.04 -0.67,0.07 -1.02,0.07zm0.02 -1.19c0.32,0 0.6,-0.02 0.86,-0.06 0.25,-0.03 0.5,-0.11 0.73,-0.24 0.3,-0.15 0.52,-0.3 0.66,-0.44 0.14,-0.13 0.26,-0.25 0.35,-0.36l-3.9 -3.56c-0.23,0.07 -0.45,0.17 -0.65,0.29 -0.21,0.13 -0.38,0.28 -0.53,0.45 -0.16,0.2 -0.28,0.43 -0.35,0.69 -0.08,0.26 -0.12,0.54 -0.12,0.83 0.01,0.3 0.06,0.58 0.16,0.84 0.08,0.26 0.22,0.49 0.41,0.69 0.26,0.3 0.61,0.53 1.05,0.66 0.44,0.14 0.88,0.21 1.33,0.21zm10.32 0.94l0 -12 1.12 0 4.72 10.09 4.69 -10.09 1.14 0 0 11.99 -1.17 0 0 -9.26 -4.27 9.27 -0.79 0 -4.27 -9.27 0 9.27 -1.17 0zm17.81 0.25c-0.88,0 -1.63,-0.2 -2.28,-0.59 -0.64,-0.38 -1.14,-0.93 -1.49,-1.64 -0.36,-0.7 -0.54,-1.53 -0.54,-2.48 0,-0.98 0.18,-1.84 0.53,-2.55 0.35,-0.72 0.84,-1.27 1.48,-1.66 0.64,-0.39 1.39,-0.58 2.25,-0.58 0.89,0 1.65,0.2 2.28,0.61 0.62,0.41 1.1,0.99 1.42,1.75 0.32,0.76 0.47,1.67 0.44,2.73l-1.25 0 0 -0.44c-0.02,-1.16 -0.27,-2.04 -0.75,-2.64 -0.48,-0.59 -1.18,-0.89 -2.1,-0.89 -0.97,0 -1.71,0.32 -2.22,0.94 -0.52,0.63 -0.78,1.53 -0.78,2.69 0,1.13 0.26,2.01 0.78,2.63 0.51,0.63 1.24,0.94 2.18,0.94 0.65,0 1.21,-0.15 1.69,-0.45 0.48,-0.29 0.86,-0.72 1.14,-1.28l1.14 0.44c-0.36,0.78 -0.88,1.39 -1.57,1.82 -0.69,0.43 -1.47,0.65 -2.35,0.65zm-3.44 -4.41l0 -1.03 6.88 0 0 1.03 -6.88 0zm12.87 4.41c-0.84,0 -1.56,-0.21 -2.15,-0.63 -0.6,-0.42 -1.05,-0.99 -1.37,-1.71 -0.32,-0.71 -0.47,-1.52 -0.47,-2.42 0,-0.9 0.15,-1.7 0.47,-2.42 0.31,-0.72 0.76,-1.28 1.35,-1.7 0.59,-0.41 1.3,-0.62 2.12,-0.62 0.84,0 1.55,0.2 2.13,0.61 0.58,0.41 1.02,0.98 1.31,1.69 0.3,0.71 0.45,1.53 0.45,2.44 0,0.89 -0.15,1.7 -0.44,2.42 -0.3,0.72 -0.73,1.29 -1.3,1.71 -0.57,0.42 -1.27,0.63 -2.1,0.63zm0.12 -1.15c0.64,0 1.17,-0.15 1.59,-0.46 0.41,-0.31 0.72,-0.74 0.93,-1.29 0.21,-0.55 0.31,-1.17 0.31,-1.86 0,-0.71 -0.1,-1.33 -0.31,-1.87 -0.21,-0.55 -0.51,-0.97 -0.93,-1.27 -0.41,-0.31 -0.93,-0.46 -1.56,-0.46 -0.65,0 -1.18,0.16 -1.6,0.47 -0.42,0.32 -0.74,0.75 -0.94,1.3 -0.2,0.54 -0.3,1.15 -0.3,1.83 0,0.68 0.1,1.3 0.31,1.84 0.21,0.55 0.52,0.98 0.94,1.3 0.41,0.32 0.93,0.47 1.56,0.47zm2.83 0.9l0 -6.78 -0.14 0 0 -5.22 1.24 0 0 12 -1.1 0zm3.6 -10.71l0 -1.38 1.21 0.01 0.01 1.37 -1.22 0zm0 10.71l0 -9 1.21 0 0.01 9 -1.22 0zm7.46 0.25c-0.91,0 -1.68,-0.21 -2.3,-0.61 -0.63,-0.41 -1.11,-0.97 -1.43,-1.68 -0.33,-0.71 -0.5,-1.54 -0.51,-2.46 0.01,-0.95 0.19,-1.78 0.52,-2.49 0.33,-0.72 0.81,-1.27 1.44,-1.67 0.63,-0.39 1.39,-0.59 2.28,-0.59 0.92,0 1.71,0.22 2.38,0.66 0.68,0.45 1.14,1.06 1.39,1.83l-1.2 0.38c-0.21,-0.54 -0.54,-0.96 -1,-1.25 -0.46,-0.3 -0.99,-0.45 -1.57,-0.45 -0.66,0 -1.21,0.15 -1.65,0.45 -0.43,0.31 -0.75,0.73 -0.96,1.27 -0.21,0.54 -0.32,1.16 -0.33,1.86 0.01,1.07 0.26,1.94 0.75,2.59 0.49,0.65 1.22,0.98 2.19,0.98 0.61,0 1.13,-0.14 1.56,-0.42 0.43,-0.28 0.76,-0.69 0.98,-1.23l1.23 0.37c-0.33,0.8 -0.82,1.41 -1.47,1.83 -0.64,0.42 -1.41,0.63 -2.3,0.63zm8 0c-0.67,0 -1.24,-0.13 -1.7,-0.37 -0.46,-0.24 -0.8,-0.57 -1.03,-0.97 -0.23,-0.41 -0.34,-0.85 -0.34,-1.33 0,-0.49 0.1,-0.91 0.3,-1.26 0.19,-0.34 0.46,-0.63 0.8,-0.85 0.34,-0.22 0.74,-0.39 1.19,-0.51 0.46,-0.11 0.96,-0.21 1.51,-0.29 0.55,-0.09 1.1,-0.16 1.63,-0.23 0.53,-0.06 0.99,-0.12 1.39,-0.18l-0.43 0.26c0.02,-0.89 -0.15,-1.55 -0.52,-1.97 -0.36,-0.43 -0.98,-0.65 -1.88,-0.65 -0.62,0 -1.14,0.14 -1.56,0.42 -0.43,0.28 -0.73,0.72 -0.9,1.32l-1.19 -0.35c0.21,-0.81 0.62,-1.43 1.24,-1.88 0.63,-0.44 1.43,-0.66 2.43,-0.66 0.82,0 1.52,0.15 2.1,0.46 0.57,0.31 0.98,0.75 1.21,1.34 0.12,0.26 0.19,0.55 0.22,0.87 0.03,0.32 0.05,0.65 0.05,0.99l0 5.59 -1.09 0 0 -2.26 0.32 0.13c-0.31,0.77 -0.78,1.36 -1.43,1.77 -0.64,0.4 -1.42,0.61 -2.32,0.61zm0.15 -1.06c0.57,0 1.07,-0.1 1.5,-0.31 0.42,-0.2 0.77,-0.49 1.03,-0.85 0.26,-0.35 0.43,-0.76 0.51,-1.21 0.06,-0.29 0.1,-0.61 0.11,-0.95 0,-0.35 0,-0.61 0,-0.78l0.47 0.24c-0.42,0.06 -0.87,0.11 -1.35,0.17 -0.49,0.05 -0.97,0.12 -1.44,0.19 -0.46,0.07 -0.89,0.16 -1.27,0.26 -0.25,0.07 -0.5,0.17 -0.74,0.3 -0.24,0.13 -0.43,0.3 -0.58,0.52 -0.16,0.22 -0.24,0.49 -0.24,0.81 0,0.26 0.07,0.51 0.2,0.76 0.13,0.24 0.34,0.45 0.64,0.61 0.29,0.16 0.67,0.24 1.16,0.24zm6.7 0.81l0 -12.25 1.22 0 0.01 12.25 -1.23 0zm10.26 0l-0.01 -10.83 -4.19 -0.01 0 -1.16 9.61 0 0 1.17 -4.2 -0.01 0.01 10.84 -1.22 0zm9.22 0.25c-0.88,0 -1.64,-0.2 -2.28,-0.59 -0.64,-0.38 -1.14,-0.93 -1.5,-1.64 -0.35,-0.7 -0.53,-1.53 -0.53,-2.48 0,-0.98 0.18,-1.84 0.53,-2.55 0.35,-0.72 0.84,-1.27 1.48,-1.66 0.63,-0.39 1.38,-0.58 2.25,-0.58 0.89,0 1.65,0.2 2.27,0.61 0.63,0.41 1.11,0.99 1.43,1.75 0.32,0.76 0.47,1.67 0.44,2.73l-1.25 0 0 -0.44c-0.02,-1.16 -0.27,-2.04 -0.75,-2.64 -0.48,-0.59 -1.18,-0.89 -2.11,-0.89 -0.96,0 -1.7,0.32 -2.22,0.94 -0.51,0.63 -0.77,1.53 -0.77,2.69 0,1.13 0.26,2.01 0.77,2.63 0.52,0.63 1.24,0.94 2.19,0.94 0.64,0 1.21,-0.15 1.69,-0.45 0.48,-0.29 0.86,-0.72 1.13,-1.28l1.15 0.44c-0.36,0.78 -0.88,1.39 -1.57,1.82 -0.69,0.43 -1.48,0.65 -2.35,0.65zm-3.44 -4.41l0 -1.03 6.87 0 0 1.03 -6.87 0zm19.86 4.16l0 -5.91c0,-0.7 -0.19,-1.24 -0.57,-1.64 -0.39,-0.4 -0.88,-0.59 -1.48,-0.59 -0.33,0 -0.67,0.07 -0.99,0.23 -0.32,0.15 -0.58,0.4 -0.79,0.75 -0.21,0.34 -0.32,0.79 -0.32,1.35l-0.72 -0.21c-0.02,-0.64 0.11,-1.21 0.38,-1.69 0.27,-0.49 0.64,-0.86 1.12,-1.13 0.47,-0.27 1.01,-0.41 1.61,-0.41 0.9,0 1.63,0.29 2.17,0.84 0.55,0.56 0.82,1.32 0.82,2.26l-0.01 6.15 -1.22 0zm-10.75 0l0 -9 1.1 0 0 2.21 0.14 0 0 6.79 -1.24 0zm5.39 0l0.01 -5.83c0,-0.72 -0.19,-1.28 -0.57,-1.7 -0.39,-0.41 -0.89,-0.61 -1.51,-0.61 -0.62,0 -1.12,0.21 -1.51,0.63 -0.38,0.43 -0.57,0.99 -0.57,1.7l-0.74 -0.4c0,-0.58 0.14,-1.1 0.41,-1.56 0.27,-0.46 0.65,-0.82 1.12,-1.08 0.47,-0.26 1.01,-0.4 1.61,-0.4 0.57,0 1.08,0.13 1.53,0.37 0.44,0.25 0.8,0.6 1.05,1.07 0.26,0.46 0.38,1.03 0.38,1.7l0 6.11 -1.21 0zm12.8 0.25c-0.83,0 -1.53,-0.21 -2.1,-0.63 -0.58,-0.42 -1.01,-0.99 -1.3,-1.71 -0.3,-0.72 -0.44,-1.53 -0.44,-2.42 0,-0.91 0.15,-1.73 0.44,-2.44 0.3,-0.71 0.74,-1.28 1.31,-1.69 0.58,-0.41 1.29,-0.61 2.14,-0.61 0.82,0 1.53,0.21 2.11,0.62 0.59,0.42 1.05,0.98 1.36,1.7 0.31,0.72 0.47,1.52 0.47,2.42 0,0.9 -0.16,1.71 -0.48,2.42 -0.31,0.72 -0.77,1.29 -1.36,1.71 -0.6,0.42 -1.31,0.63 -2.15,0.63zm-4.05 3.75l0 -13 1.1 0 0 6.77 0.13 0 0 6.23 -1.23 0zm3.92 -4.9c0.63,0 1.15,-0.15 1.57,-0.47 0.42,-0.32 0.73,-0.75 0.94,-1.3 0.21,-0.54 0.31,-1.16 0.31,-1.84 0,-0.68 -0.1,-1.29 -0.31,-1.83 -0.2,-0.55 -0.52,-0.98 -0.94,-1.3 -0.41,-0.31 -0.95,-0.47 -1.59,-0.47 -0.63,0 -1.15,0.15 -1.56,0.46 -0.42,0.3 -0.73,0.72 -0.93,1.27 -0.21,0.54 -0.31,1.16 -0.31,1.87 0,0.69 0.1,1.31 0.31,1.86 0.2,0.55 0.51,0.98 0.93,1.29 0.42,0.31 0.94,0.46 1.58,0.46zm6.12 0.9l0 -12.25 1.22 0 0 12.25 -1.22 0zm6.3 0.25c-0.68,0 -1.25,-0.13 -1.7,-0.37 -0.46,-0.24 -0.81,-0.57 -1.03,-0.97 -0.23,-0.41 -0.35,-0.85 -0.35,-1.33 0,-0.49 0.1,-0.91 0.3,-1.26 0.2,-0.34 0.47,-0.63 0.81,-0.85 0.34,-0.22 0.74,-0.39 1.19,-0.51 0.45,-0.11 0.96,-0.21 1.51,-0.29 0.55,-0.09 1.09,-0.16 1.62,-0.23 0.53,-0.06 1,-0.12 1.4,-0.18l-0.43 0.26c0.01,-0.89 -0.16,-1.55 -0.52,-1.97 -0.36,-0.43 -0.99,-0.65 -1.88,-0.65 -0.62,0 -1.14,0.14 -1.57,0.42 -0.42,0.28 -0.72,0.72 -0.89,1.32l-1.19 -0.35c0.2,-0.81 0.62,-1.43 1.24,-1.88 0.62,-0.44 1.43,-0.66 2.42,-0.66 0.82,0 1.52,0.15 2.1,0.46 0.58,0.31 0.98,0.75 1.22,1.34 0.11,0.26 0.18,0.55 0.22,0.87 0.03,0.32 0.05,0.65 0.05,0.99l0 5.59 -1.1 0 0 -2.26 0.32 0.13c-0.3,0.77 -0.78,1.36 -1.42,1.77 -0.65,0.4 -1.42,0.61 -2.32,0.61zm0.14 -1.06c0.57,0 1.07,-0.1 1.5,-0.31 0.43,-0.2 0.77,-0.49 1.03,-0.85 0.27,-0.35 0.43,-0.76 0.51,-1.21 0.07,-0.29 0.11,-0.61 0.11,-0.95 0.01,-0.35 0.01,-0.61 0.01,-0.78l0.47 0.24c-0.42,0.06 -0.87,0.11 -1.36,0.17 -0.49,0.05 -0.96,0.12 -1.43,0.19 -0.47,0.07 -0.89,0.16 -1.27,0.26 -0.26,0.07 -0.51,0.17 -0.74,0.3 -0.24,0.13 -0.44,0.3 -0.59,0.52 -0.15,0.22 -0.23,0.49 -0.23,0.81 0,0.26 0.07,0.51 0.2,0.76 0.12,0.24 0.34,0.45 0.63,0.61 0.29,0.16 0.68,0.24 1.16,0.24zm11.44 0.81c-0.5,0.1 -1,0.14 -1.49,0.12 -0.49,-0.02 -0.93,-0.13 -1.32,-0.31 -0.38,-0.19 -0.68,-0.49 -0.88,-0.89 -0.16,-0.33 -0.25,-0.67 -0.26,-1.01 -0.01,-0.34 -0.02,-0.73 -0.02,-1.17l0 -8.24 1.21 0 0 8.19c0,0.38 0.01,0.69 0.02,0.94 0.01,0.26 0.06,0.48 0.17,0.68 0.2,0.37 0.52,0.59 0.95,0.66 0.44,0.07 0.98,0.06 1.62,-0.05l0 1.08zm-5.9 -7.95l0 -1.05 5.9 0 0 1.05 -5.9 0zm11.15 8.2c-0.87,0 -1.63,-0.2 -2.27,-0.59 -0.65,-0.38 -1.15,-0.93 -1.5,-1.64 -0.36,-0.7 -0.54,-1.53 -0.54,-2.48 0,-0.98 0.18,-1.84 0.53,-2.55 0.35,-0.72 0.84,-1.27 1.48,-1.66 0.64,-0.39 1.39,-0.58 2.25,-0.58 0.89,0 1.65,0.2 2.28,0.61 0.63,0.41 1.1,0.99 1.42,1.75 0.32,0.76 0.47,1.67 0.44,2.73l-1.25 0 0 -0.44c-0.02,-1.16 -0.27,-2.04 -0.75,-2.64 -0.48,-0.59 -1.18,-0.89 -2.1,-0.89 -0.97,0 -1.71,0.32 -2.22,0.94 -0.52,0.63 -0.78,1.53 -0.78,2.69 0,1.13 0.26,2.01 0.78,2.63 0.51,0.63 1.24,0.94 2.18,0.94 0.65,0 1.21,-0.15 1.69,-0.45 0.48,-0.29 0.86,-0.72 1.14,-1.28l1.14 0.44c-0.36,0.78 -0.88,1.39 -1.57,1.82 -0.69,0.43 -1.47,0.65 -2.35,0.65zm-3.44 -4.41l0 -1.03 6.88 0 0 1.03 -6.88 0z"/>
 </g>
</svg>
