<?xml version="1.0" encoding="utf-8"?>
<!-- Generator: Adobe Illustrator 22.1.0, SVG Export Plug-In . SVG Version: 6.00 Build 0)  -->
<svg version="1.1" id="Capa_1" xmlns="http://www.w3.org/2000/svg" xmlns:xlink="http://www.w3.org/1999/xlink" x="0px" y="0px"
	 viewBox="0 0 512 512" style="enable-background:new 0 0 512 512;" xml:space="preserve">
<style type="text/css">
	.st0{fill:#427CC5;}
</style>
<g>
	<path class="st0" d="M224,74.3c5.9,0,10.7-4.8,10.7-10.7S229.9,53,224,53C100.3,53.1,0.1,153.3,0,277v64
		c-0.2,65,52.3,117.8,117.3,118c65,0.2,117.8-52.3,118-117.3c0.2-65-52.3-117.8-117.3-118c-38.4-0.1-74.4,18.5-96.5,49.9
		C23.5,163,113.5,74.5,224,74.3z"/>
	<path class="st0" d="M394.7,223.7c-38.2,0-73.9,18.6-95.8,49.9c2-110.5,92-199,202.5-199.2c5.9,0,10.7-4.8,10.7-10.7
		S507.2,53,501.3,53c-123.7,0.1-223.9,100.3-224,224v64c0,64.8,52.5,117.3,117.3,117.3S512,405.8,512,341S459.5,223.7,394.7,223.7z"
		/>
</g>
</svg>
